<svg xmlns="http://www.w3.org/2000/svg" viewBox="0 0 256.37 235.91"><defs><style>.cls-1{fill:#f3f3f3;}</style></defs><title>download_1</title><g id="Capa_2" data-name="Capa 2"><g id="Capa_1-2" data-name="Capa 1"><path class="cls-1" d="M196.22,57.77c72.38,5.09,77.57,85.94,25.61,108.88l-.5.19c-19.36,6.8-40.31,3.55-60.74,3.78a5.29,5.29,0,0,1-5.37-5.27h0a5.26,5.26,0,0,1,5.17-5.27c23.43-.39,48.64,3.1,64-6.81,28.33-17.63,26.48-57.88,2.3-75.32-11.21-8.54-25.79-8.26-39.9-8.66a5.26,5.26,0,0,1-5.11-5c-3.12-60.73-81.35-73.2-105-18.74a4.29,4.29,0,0,0-.23.63c-1,3.52-2.71,7.13-6.1,7.35-67.39-3-81.43,84.33-21.69,104.09.14,0,.28.09.43.12,16,4.22,31.29,2.28,46.77,2.36a5.25,5.25,0,0,1,5.21,5.27v.14a5.28,5.28,0,0,1-5.4,5.26c-17.4-.31-34.93,2.39-52.12-3.35-66.41-24.13-53.64-118,16.74-124.55a5.4,5.4,0,0,0,.88-.15c5.31-1.47,7.37-5.52,10.35-11,.07-.13.15-.25.23-.37C105-20.49,180.29-4.55,191.37,53.45A5.32,5.32,0,0,0,196.22,57.77Z"/><path class="cls-1" d="M122.59,101.79H133.5V215.43L164,184.66c3,3.43,5.29,6,7.3,8.28l-43,43q-21.41-21.45-43.53-43.66l7.44-6.62c9.65,9.69,19.62,19.68,30.34,30.43Z"/></g></g></svg>