<svg xmlns="http://www.w3.org/2000/svg" viewBox="0 0 205.98 136.16"><defs><style>.cls-1{fill:#fff;}</style></defs><title>Recurso 1</title><g id="Capa_2" data-name="Capa 2"><g id="Capa_1-2" data-name="Capa 1"><path class="cls-1" d="M166,136.16c-.24-.19-.56-.15-.84-.25a1.65,1.65,0,0,1-1.2-1.6q0-.48-.09-1c-.27-1.94.66-3.5,1.63-5a21.13,21.13,0,0,1,2.35-2.9c.7-.76.69-.87.09-1.68s-1.13-1.47-1.65-2.23a6.49,6.49,0,0,1-1-2.48c0-.16,0-.4-.19-.44s-.27.18-.38.3a21.67,21.67,0,0,1-3.38,2.74,3.92,3.92,0,0,1-3.4.52,1.71,1.71,0,0,1-1.21-1.09,19.38,19.38,0,0,0-1.39-2.77c-.5-.75-.7-.84-1.4-.25s-1.34,1.21-2,1.84a3.74,3.74,0,0,1-.78.65,30,30,0,0,0-3.21,2.39,7.46,7.46,0,0,1-3,1.83c-.35.07-.55,0-.61-.3a22.11,22.11,0,0,1-.72-2.53c-.07-.73,0-1.46-.08-2.2s.85-1.41,1.54-1.35c.4,0,.44.43.7.65a.85.85,0,0,0,.3-.57,20.72,20.72,0,0,0,.49-4.15c0-.22.05-.49-.21-.6a.65.65,0,0,0-.63.16,45,45,0,0,0-3.51,3,27,27,0,0,0-2.78,2.88,5.47,5.47,0,0,1-1.73,1.37,6.91,6.91,0,0,1-4.38.92,2.56,2.56,0,0,1-1.94-1.48c-.2-.43-.37-.87-.59-1.28s-.58-.59-1-.15a10.26,10.26,0,0,0-1.23,1.33c-.84,1.22-2,1.26-3.29,1a3.59,3.59,0,0,1-2.92-3,4.12,4.12,0,0,0-.72-1.86,6.67,6.67,0,0,0-1.71,2.12,24,24,0,0,1-2.8,3.33,8.49,8.49,0,0,1-2,1.81,2.7,2.7,0,0,1-1.33.41,1.8,1.8,0,0,1-1.9-2.39,10.11,10.11,0,0,1,.49-1.5,1.4,1.4,0,0,0-.06-1.2c-.2-.4-.32-.85-.55-1.23a.79.79,0,0,1,.15-1,4.37,4.37,0,0,1,2-1.49,1.58,1.58,0,0,0,.76-.56,17,17,0,0,1,2-2.12c1.11-1,2.09-2.18,3.27-3.14a8.48,8.48,0,0,1,2.07-1.35.94.94,0,0,0,.65-.65,48.53,48.53,0,0,1,4.2-9.94,2.55,2.55,0,0,1,1.63-1.53c.65-.16,1.05.11,1.08.78a7.51,7.51,0,0,1-.51,3.44,2.57,2.57,0,0,0-.18.82,1.51,1.51,0,0,1-.1.61,36,36,0,0,0-1.25,3.62,17.22,17.22,0,0,1-1.33,2.73c-.23.34-.06.72-.17,1.09-.37,1.22-.69,2.46-1,3.69a5.43,5.43,0,0,0,1.1,4.93,1.56,1.56,0,0,0,2.5-.4A8.19,8.19,0,0,1,130,115.8c.35-.29.25-.73.31-1.1a10.31,10.31,0,0,1,2.21-5.12,8.44,8.44,0,0,1,2.3-2.39,2.83,2.83,0,0,1,2.4-.21c.82.28.91,1.12,1,1.83a5.35,5.35,0,0,1-1,3.44,18.7,18.7,0,0,1-3.07,3.63c-1.08,1.07-.8,2.16.66,2.63a4.22,4.22,0,0,0,3-.5,2.35,2.35,0,0,0,1.29-1.12c.26-.54.84-.78,1.32-1.12a17.13,17.13,0,0,0,3.2-3c.43-.5,1-.9,1.44-1.36.78-.77,1.54-1.56,2.33-2.33a2.09,2.09,0,0,1,2.36-.3c.62.33.82,1,.75,1.91a35.27,35.27,0,0,1-2.06,8.6c-.05.17-.26.4-.05.56s.42-.08.58-.21a14.38,14.38,0,0,0,2.5-2.21c1.22-1.71,3.06-2.79,4.29-4.49.62-.85,2.24-.4,2.62.7a9.64,9.64,0,0,1,.43,1.93,22.35,22.35,0,0,0,.63,2.69c.19.76.58,1,1.34.8a5.39,5.39,0,0,0,2.65-1.92c.41-.45.76-1,1.19-1.37a8.87,8.87,0,0,0,1.84-3,8.84,8.84,0,0,1,1.66-2.48c.94-1.08,1.93-2.12,2.82-3.26a3.39,3.39,0,0,1,2.22-1.34,1.13,1.13,0,0,1,1.47.88,2.42,2.42,0,0,1-.23,2.11,31.71,31.71,0,0,1-3.37,4.12c-.55.59-1.1,1.2-1.67,1.77a3.17,3.17,0,0,0-.55,3.88,12.72,12.72,0,0,0,1.81,2.53c.26.28.46.31.73,0a34.67,34.67,0,0,0,3.18-3.68c.7-1,1.66-1.65,2.41-2.55,1.14-1.36,2.36-2.67,3.55-4a3.47,3.47,0,0,1,2.22-1.23,1.42,1.42,0,0,1,1.8,1.49,9.65,9.65,0,0,1-.63,3.14,19.85,19.85,0,0,1-1.17,3.35,1.12,1.12,0,0,0-.11.88c.28,0,.35-.28.5-.43a42.89,42.89,0,0,1,3.65-3.85,4.36,4.36,0,0,1,2.48-1.13,2,2,0,0,1,2.11,1.46c.29.85.55,1.72.9,2.55s.94,1.06,1.81.43c.25.57.49,1.14.75,1.7.1.21,0,.3-.16.42-.5.4-1,.83-1.49,1.22a2.08,2.08,0,0,1-3.29-.58,29.31,29.31,0,0,0-1.9-2.8.58.58,0,0,0-.9-.18c-.52.29-.91.75-1.4,1-1.63,1-2.56,2.74-3.95,4-.44.41-.86.85-1.29,1.27a1.63,1.63,0,0,1-.84.44c-1.32.25-2-.54-1.6-1.88.59-1.94,1.2-3.87,1.8-5.81,0-.06.06-.1.06-.16,0-.25.2-.55-.08-.72s-.52,0-.73.17-.49.42-.71.65a14.7,14.7,0,0,1-1.74,1.7,13,13,0,0,0-2,2.41c-.6.74-1.09,1.56-1.69,2.28a.83.83,0,0,0,.07,1.3,6.48,6.48,0,0,1,1.49,2.94,5.43,5.43,0,0,1-.89,4.78,10.61,10.61,0,0,1-5.71,4.32c-.26.08-.56-.06-.78.18ZM171.5,129a5.09,5.09,0,0,0-.78-2.39c-.42-.68-.62-.68-1.11-.06-1.05,1.32-1.85,2.8-2.8,4.18a7.45,7.45,0,0,0-1,2.27.64.64,0,0,0,.59.89,1.84,1.84,0,0,0,.84,0,6.44,6.44,0,0,0,4.08-4A2.45,2.45,0,0,0,171.5,129Zm-49.8-17.57a19.84,19.84,0,0,0-2.53,2.66,34.65,34.65,0,0,0-3.23,4.76c-.14.27-.52.66-.24.88s.63-.16.88-.38a20,20,0,0,0,3.13-3.55,13.46,13.46,0,0,0,1.83-3.1A1.68,1.68,0,0,0,121.7,111.42Zm13.71-.19a.46.46,0,0,0-.16-.32c-.2-.13-.34,0-.45.12a5.66,5.66,0,0,0-1.53,2.45c-.05.15-.09.31.07.41a.31.31,0,0,0,.43-.15,11.54,11.54,0,0,1,1.23-1.47A1.68,1.68,0,0,0,135.41,111.23Z"/><path class="cls-1" d="M206,7.89c-.22.2-.14.49-.19.74a7.24,7.24,0,1,1,.08-2.28c0,.08,0,.15.11.18Zm-7.28,5.45a6.22,6.22,0,0,0,6.24-6.12,6.18,6.18,0,1,0-12.36-.1A6.18,6.18,0,0,0,198.7,13.34Z"/><path class="cls-1" d="M88.76,49.08c16.89,0,33.79,0,50.69,0,18.09-.07,36.18,0,54.27,0a3.83,3.83,0,0,1,3.86,2.16,4.58,4.58,0,0,1-.43,4.88,3.4,3.4,0,0,1-2.88,1.44h-.17l-124.6.06c-10.33,0-20.66,0-31,0-4.16,0-5.24-4-3.8-6.59a3.62,3.62,0,0,1,3.19-1.94H88.76Z"/><path class="cls-1" d="M59.58,72.74c0,3.58,0,7.15,0,10.73a4,4,0,0,1-2.21,3.88,35.21,35.21,0,0,1-11.94,4.1A41.74,41.74,0,0,1,37.7,92a37.43,37.43,0,0,1-19.22-5.65A39,39,0,0,1,3.94,70.42a37.58,37.58,0,0,1-3.73-13A36.88,36.88,0,0,1,4,36.64a38,38,0,0,1,24.25-20A37.65,37.65,0,0,1,40,15.19a39.19,39.19,0,0,1,18,5,3.38,3.38,0,0,1,1.73,3.68,4.5,4.5,0,0,1-3.32,3.89,4.65,4.65,0,0,1-3.4-.51,28.8,28.8,0,0,0-17-3.8,29.5,29.5,0,0,0-23.86,15A28.4,28.4,0,0,0,8.14,52,30.36,30.36,0,0,0,28.68,82.14a30.21,30.21,0,0,0,11.91,1.39A29.46,29.46,0,0,0,51,80.87a.88.88,0,0,0,.58-.94c0-6.11,0-12.22,0-18.33,0-.54.14-.71.69-.7,2.29.06,4.58.1,6.87.1.46,0,.45.23.45.56Z"/><path class="cls-1" d="M197.2,72.73c0,3.56,0,7.12,0,10.67a4.14,4.14,0,0,1-2.31,4,35.63,35.63,0,0,1-11.83,4,44,44,0,0,1-7.85.52,37.52,37.52,0,0,1-23.76-9,38,38,0,0,1-12.76-20.41c-.13-.53-.22-1.07-.36-1.6-.1-.37,0-.51.39-.51q3.66,0,7.32,0c.44,0,.54.21.62.55a28.63,28.63,0,0,0,4.83,10.24,29.37,29.37,0,0,0,17.85,11.68,30.35,30.35,0,0,0,19.28-2.07.88.88,0,0,0,.58-.94c0-6.11,0-12.22,0-18.33,0-.54.13-.71.68-.7,2.29.06,4.58.1,6.86.1.46,0,.47.22.47.56C197.2,65.28,197.2,69,197.2,72.73Z"/><path class="cls-1" d="M175.38,15.24A40.43,40.43,0,0,1,195,20.06a3.63,3.63,0,0,1,1.91,4.32,4.4,4.4,0,0,1-6.67,2.88,28.73,28.73,0,0,0-12.14-3.73A29.47,29.47,0,0,0,153.4,33.2a27.48,27.48,0,0,0-6.69,12.14.74.74,0,0,1-.88.67c-2.38,0-4.77,0-7.15,0-.46,0-.62,0-.5-.58,2.56-11.29,9-19.69,19-25.37a38,38,0,0,1,14.15-4.56A33.23,33.23,0,0,1,175.38,15.24Z"/><path class="cls-1" d="M73.64,46c-1.23,0-2.46,0-3.69,0-.43,0-.52-.14-.44-.53a37.17,37.17,0,0,1,7.93-16.3A38.22,38.22,0,0,1,95,17.26a39.25,39.25,0,0,1,31.72,3,3.49,3.49,0,0,1,1.46,4.25,4.36,4.36,0,0,1-6.53,2.74A29.88,29.88,0,0,0,111,23.69,30,30,0,0,0,78,45.52a.57.57,0,0,1-.67.48c-1.23,0-2.46,0-3.69,0Z"/><path class="cls-1" d="M89.46,92a39.48,39.48,0,0,1-19.09-5,3.61,3.61,0,0,1-1.46-4.77,4.29,4.29,0,0,1,6.38-2.3,30.07,30.07,0,0,0,13.78,3.85,29.33,29.33,0,0,0,20.25-7,28.81,28.81,0,0,0,9.6-15.06.53.53,0,0,1,.62-.47c2.46,0,4.92,0,7.38,0,.51,0,.54.19.46.6A38.3,38.3,0,0,1,99.54,90.65a37.82,37.82,0,0,1-8.67,1.26C90.4,91.92,89.93,92,89.46,92Z"/><path class="cls-1" d="M156,105.35a3.36,3.36,0,0,1,1.67-2.53,4.06,4.06,0,0,0,.95-.84,2,2,0,0,1,2.05-.59.7.7,0,0,1,.54.86,10.64,10.64,0,0,1-.82,2.8,3.22,3.22,0,0,1-3.79,1.81.54.54,0,0,1-.34-.35A2.56,2.56,0,0,1,156,105.35Z"/><path class="cls-1" d="M200.21,7.37a12.7,12.7,0,0,1,2.54,3.4c.06.1.1.2-.06.28a1.34,1.34,0,0,1-1.33-.4c-.51-.78-1-1.57-1.53-2.33a2.59,2.59,0,0,0-2.65-.8c-.23.09-.16.27-.17.43,0,.88,0,1.77,0,2.66,0,.48-.24.46-.56.45s-.59.06-.58-.43c0-2.4,0-4.8,0-7.21,0-.3.07-.44.41-.43,1.32,0,2.65,0,4,0a2.12,2.12,0,0,1,1.88,3A2.35,2.35,0,0,1,200.21,7.37Zm-1.71-.88a5.34,5.34,0,0,0,1.69-.07,1.26,1.26,0,0,0,1-1.25A1.23,1.23,0,0,0,200.16,4a9.21,9.21,0,0,0-2-.09C197,3.91,197,3.92,197,5c0,.48-.22,1.13.11,1.4S198,6.49,198.5,6.49Z"/></g></g></svg>